<mxfile host="65bd71144e">
    <diagram id="OUVq-qZIlB1PRLdlY_VL" name="dir_tree">
        <mxGraphModel dx="1101" dy="594" grid="1" gridSize="10" guides="1" tooltips="1" connect="1" arrows="1" fold="1" page="1" pageScale="1" pageWidth="1169" pageHeight="827" math="0" shadow="0">
            <root>
                <mxCell id="0"/>
                <mxCell id="1" parent="0"/>
                <mxCell id="vOqylL4nctmxGgRKi56n-1" value="nÂ " style="swimlane;startSize=20;horizontal=0;childLayout=treeLayout;horizontalTree=1;resizable=0;containerType=tree;" parent="1" vertex="1">
                    <mxGeometry x="40" y="40" width="620" height="398" as="geometry"/>
                </mxCell>
                <mxCell id="vOqylL4nctmxGgRKi56n-2" value="SEARCH_ENGINE" style="whiteSpace=wrap;html=1;" parent="vOqylL4nctmxGgRKi56n-1" vertex="1">
                    <mxGeometry x="40" y="135.2" width="110" height="40" as="geometry"/>
                </mxCell>
                <mxCell id="vOqylL4nctmxGgRKi56n-3" value="info" style="whiteSpace=wrap;html=1;" parent="vOqylL4nctmxGgRKi56n-1" vertex="1">
                    <mxGeometry x="200" y="20" width="100" height="40" as="geometry"/>
                </mxCell>
                <mxCell id="vOqylL4nctmxGgRKi56n-4" value="" style="edgeStyle=elbowEdgeStyle;elbow=horizontal;html=1;rounded=0;" parent="vOqylL4nctmxGgRKi56n-1" source="vOqylL4nctmxGgRKi56n-2" target="vOqylL4nctmxGgRKi56n-3" edge="1">
                    <mxGeometry relative="1" as="geometry"/>
                </mxCell>
                <mxCell id="vOqylL4nctmxGgRKi56n-5" value="Make Dataset" style="whiteSpace=wrap;html=1;" parent="vOqylL4nctmxGgRKi56n-1" vertex="1">
                    <mxGeometry x="200" y="100" width="100" height="40" as="geometry"/>
                </mxCell>
                <mxCell id="vOqylL4nctmxGgRKi56n-6" value="" style="edgeStyle=elbowEdgeStyle;elbow=horizontal;html=1;rounded=0;" parent="vOqylL4nctmxGgRKi56n-1" source="vOqylL4nctmxGgRKi56n-2" target="vOqylL4nctmxGgRKi56n-5" edge="1">
                    <mxGeometry relative="1" as="geometry"/>
                </mxCell>
                <mxCell id="vOqylL4nctmxGgRKi56n-35" value="" style="edgeStyle=elbowEdgeStyle;elbow=horizontal;html=1;rounded=0;" parent="vOqylL4nctmxGgRKi56n-1" source="vOqylL4nctmxGgRKi56n-2" target="vOqylL4nctmxGgRKi56n-36" edge="1">
                    <mxGeometry relative="1" as="geometry">
                        <mxPoint x="190" y="-344.8" as="sourcePoint"/>
                    </mxGeometry>
                </mxCell>
                <mxCell id="vOqylL4nctmxGgRKi56n-36" value="SearchEngine" style="whiteSpace=wrap;html=1;" parent="vOqylL4nctmxGgRKi56n-1" vertex="1">
                    <mxGeometry x="200" y="250.4" width="100" height="40" as="geometry"/>
                </mxCell>
                <mxCell id="vOqylL4nctmxGgRKi56n-39" value="" style="edgeStyle=elbowEdgeStyle;elbow=horizontal;html=1;rounded=0;" parent="vOqylL4nctmxGgRKi56n-1" source="vOqylL4nctmxGgRKi56n-36" target="vOqylL4nctmxGgRKi56n-40" edge="1">
                    <mxGeometry relative="1" as="geometry">
                        <mxPoint x="190" y="-264.8" as="sourcePoint"/>
                    </mxGeometry>
                </mxCell>
                <mxCell id="vOqylL4nctmxGgRKi56n-40" value="app&lt;br&gt;" style="whiteSpace=wrap;html=1;" parent="vOqylL4nctmxGgRKi56n-1" vertex="1">
                    <mxGeometry x="350" y="162.4" width="100" height="40" as="geometry"/>
                </mxCell>
                <mxCell id="vOqylL4nctmxGgRKi56n-43" value="" style="edgeStyle=elbowEdgeStyle;elbow=horizontal;html=1;rounded=0;" parent="vOqylL4nctmxGgRKi56n-1" source="vOqylL4nctmxGgRKi56n-36" target="vOqylL4nctmxGgRKi56n-44" edge="1">
                    <mxGeometry relative="1" as="geometry">
                        <mxPoint x="340" y="-184.8" as="sourcePoint"/>
                    </mxGeometry>
                </mxCell>
                <mxCell id="vOqylL4nctmxGgRKi56n-44" value="web" style="whiteSpace=wrap;html=1;" parent="vOqylL4nctmxGgRKi56n-1" vertex="1">
                    <mxGeometry x="350" y="338.40000000000003" width="100" height="40" as="geometry"/>
                </mxCell>
                <mxCell id="vOqylL4nctmxGgRKi56n-45" value="" style="edgeStyle=elbowEdgeStyle;elbow=horizontal;html=1;rounded=0;" parent="vOqylL4nctmxGgRKi56n-1" source="vOqylL4nctmxGgRKi56n-40" target="vOqylL4nctmxGgRKi56n-46" edge="1">
                    <mxGeometry relative="1" as="geometry">
                        <mxPoint x="340" y="-164.8" as="sourcePoint"/>
                    </mxGeometry>
                </mxCell>
                <mxCell id="vOqylL4nctmxGgRKi56n-46" value="config" style="whiteSpace=wrap;html=1;" parent="vOqylL4nctmxGgRKi56n-1" vertex="1">
                    <mxGeometry x="500" y="42.400000000000006" width="100" height="40" as="geometry"/>
                </mxCell>
                <mxCell id="vOqylL4nctmxGgRKi56n-47" value="" style="edgeStyle=elbowEdgeStyle;elbow=horizontal;html=1;rounded=0;" parent="vOqylL4nctmxGgRKi56n-1" source="vOqylL4nctmxGgRKi56n-40" target="vOqylL4nctmxGgRKi56n-48" edge="1">
                    <mxGeometry relative="1" as="geometry">
                        <mxPoint x="490" y="-204.8" as="sourcePoint"/>
                    </mxGeometry>
                </mxCell>
                <mxCell id="vOqylL4nctmxGgRKi56n-48" value="models" style="whiteSpace=wrap;html=1;" parent="vOqylL4nctmxGgRKi56n-1" vertex="1">
                    <mxGeometry x="500" y="122.4" width="100" height="40" as="geometry"/>
                </mxCell>
                <mxCell id="vOqylL4nctmxGgRKi56n-49" value="" style="edgeStyle=elbowEdgeStyle;elbow=horizontal;html=1;rounded=0;" parent="vOqylL4nctmxGgRKi56n-1" source="vOqylL4nctmxGgRKi56n-40" target="vOqylL4nctmxGgRKi56n-50" edge="1">
                    <mxGeometry relative="1" as="geometry">
                        <mxPoint x="490" y="-72.80000000000001" as="sourcePoint"/>
                    </mxGeometry>
                </mxCell>
                <mxCell id="vOqylL4nctmxGgRKi56n-50" value="engine" style="whiteSpace=wrap;html=1;" parent="vOqylL4nctmxGgRKi56n-1" vertex="1">
                    <mxGeometry x="500" y="202.4" width="100" height="40" as="geometry"/>
                </mxCell>
                <mxCell id="vOqylL4nctmxGgRKi56n-55" value="" style="edgeStyle=elbowEdgeStyle;elbow=horizontal;html=1;rounded=0;" parent="vOqylL4nctmxGgRKi56n-1" source="vOqylL4nctmxGgRKi56n-40" target="vOqylL4nctmxGgRKi56n-56" edge="1">
                    <mxGeometry relative="1" as="geometry">
                        <mxPoint x="490" y="69.19999999999999" as="sourcePoint"/>
                    </mxGeometry>
                </mxCell>
                <mxCell id="vOqylL4nctmxGgRKi56n-56" value="engine" style="whiteSpace=wrap;html=1;" parent="vOqylL4nctmxGgRKi56n-1" vertex="1">
                    <mxGeometry x="500" y="282.40000000000003" width="100" height="40" as="geometry"/>
                </mxCell>
            </root>
        </mxGraphModel>
    </diagram>
</mxfile>